<svg width="194" height="88" viewBox="0 0 194 88" fill="none" xmlns="http://www.w3.org/2000/svg">
<path d="M71.5104 33.4227C69.642 25.7243 66.116 16.6185 50.8706 18.8904C40.423 20.4476 27.8905 26.6667 24.115 39.9102C21.8217 47.955 25.1342 53.4044 26.4082 54.1828C27.6822 54.9611 24.3697 56.259 19.2732 71.0507C15.1961 82.8837 17.469 86.6843 16.4706 85.5825C13.4127 82.2093 10.6096 82.3993 9.59028 83.0223C5.76835 85.3578 5.00375 90.7726 8.57099 95.1844C4.74906 94.1117 4.34613 95.6128 3.47508 97.2602C1.6912 100.634 5.3481 106.644 7.55171 110.235C11.3742 116.464 36.0912 145.787 75.3329 150.977" stroke="#B06338" stroke-width="5" stroke-linecap="round"/>
<path d="M116.841 29.776C118.008 22.0017 120.698 12.6875 136.078 13.5494C146.618 14.1398 159.653 19.1466 164.603 31.8864C167.609 39.625 164.803 45.3082 163.604 46.193C162.406 47.0773 165.82 48.0589 172.225 62.2077C177.348 73.5273 175.428 77.4878 176.323 76.3085C179.063 72.699 181.87 72.6328 182.941 73.1554C186.955 75.1161 189.024 80.5849 185.87 85.2661C189.578 83.8602 189.294 85.1169 190.309 86.6654C192.388 89.8359 189.29 96.1049 187.419 99.8519C184.174 106.351 162.784 140.405 124.19 149.09" stroke="#B06338" stroke-width="5" stroke-linecap="round"/>
<path d="M80.6815 40.1293C80.6815 40.1293 74.4629 46.948 78.1473 51.0877C81.8317 55.2275 89.446 47.9219 89.6915 45.974C89.9371 44.0256 87.7268 41.3472 85.7616 43.7821C83.7964 46.2175 84.288 46.948 84.779 51.0877C85.2701 55.2275 90.4286 56.445 93.6215 56.2015C96.8148 55.958 100.99 52.3052 101.236 49.3828C101.482 46.461 100.254 42.8082 97.5519 42.8082C94.8496 42.8082 94.8496 45.243 95.8322 46.948C96.8148 48.6524 100.99 52.5487 105.903 52.5487C110.816 52.5487 110.57 48.1654 108.851 44.5126C107.131 40.8597 103.447 40.1293 103.447 40.1293" stroke="#B06338" stroke-width="3" stroke-linecap="round"/>
<path d="M84.5015 94.6898C91.3089 98.2148 95.33 96.5445 97.2362 84.2473C100.051 95.6133 106.663 97.4252 110.99 91.6335" stroke="#B06338" stroke-width="3" stroke-linecap="round"/>
<path d="M96.1215 79.2951C100.242 79.1163 104.889 79.0093 103.711 81.952C102.534 84.8948 100.501 85.0776 96.3802 85.2564C92.2598 85.4352 90.3088 85.2564 88.7904 82.5995C87.2724 79.9425 92.0015 79.4739 96.1215 79.2951Z" fill="#B06338"/>
<path d="M72.3434 76.9366C70.7052 80.6934 68.58 83.495 64.534 81.6266C60.4874 79.7576 61.0187 76.4685 62.6574 72.7123C64.2956 68.9555 66.7432 66.4646 70.4673 68.0223C74.1915 69.5806 73.9821 73.1804 72.3434 76.9366Z" fill="#B06338"/>
<path d="M116.5 73.9923C118.481 77.58 120.858 80.1717 124.713 77.934C128.567 75.6968 127.732 72.4713 125.75 68.8837C123.769 65.2961 121.101 63.0441 117.538 64.9421C113.975 66.84 114.518 70.4047 116.5 73.9923Z" fill="#B06338"/>
<path d="M132.553 32.4268C128.844 33.5887 126.416 37.0918 126.972 37.9068C127.527 38.7218 143.409 45.0831 144.827 45.728C146.245 46.3728 146.082 39.4737 143.86 36.2141C141.638 32.954 136.262 31.2649 132.553 32.4268Z" stroke="#B06338" stroke-width="3" stroke-linecap="round"/>
<path d="M53.2731 34.9116C57.0711 35.7373 59.803 39.0086 59.3226 39.87C58.8423 40.7314 43.5927 48.4883 42.2378 49.2575C40.8833 50.0267 40.4284 43.1403 42.3498 39.6953C44.2712 36.2498 49.4752 34.0859 53.2731 34.9116Z" stroke="#B06338" stroke-width="3" stroke-linecap="round"/>
<path d="M97.7461 26.4318C105.593 25.6412 108.8 24.9424 113.028 23.3755" stroke="#B06338" stroke-width="3" stroke-linecap="round"/>
<path d="M72.0478 19.4644C70.8904 24.7453 73.5836 29.0964 75.1927 32.4457C76.8019 35.7949 111.113 33.4329 111.988 30.2293C112.863 27.0258 115.762 19.7808 112.617 14.7149C109.472 9.64904 103.967 6.79952 94.8464 9.64904L89.4999 11.5485M89.4999 11.5485C80.5393 8.3827 73.4608 14.3981 72.2031 18.8308M89.4999 11.5485C88.7628 7.37462 86.0406 3 80.6941 3" stroke="#B06338" stroke-width="5" stroke-linecap="round"/>
</svg>
