<svg width="54" height="48" viewBox="0 0 54 48" fill="none" xmlns="http://www.w3.org/2000/svg">
<path d="M43.0771 42.6884C48.5013 36.2149 37.4305 27.6799 30.9562 21.3443C26.6597 18.348 20.8072 19.7354 16.9969 22.0222C7.44827 27.753 1.65242 36.2887 6.90941 42.5582C12.1664 48.8277 22.5334 43.2445 24.5949 43.6161C26.6565 43.9877 37.6529 49.1619 43.0771 42.6884Z" fill="#FFF4C7"/>
<path d="M7.07811 18.8472C7.07811 18.8472 5.34805 16.142 2.88433 17.6379C0.420597 19.1337 0.918875 22.5871 0.918875 22.5871C0.918875 22.5871 0.672384 25.5571 2.60208 28.1456C4.53178 30.7341 6.0511 28.8713 6.0511 28.8713C6.0511 28.8713 7.89883 27.7493 8.34509 24.6631C8.79135 21.5769 7.07811 18.8472 7.07811 18.8472Z" fill="#FFF4C7"/>
<path d="M16.499 10.223C16.499 10.223 15.3661 4.69664 11.5298 8.26317C7.69348 11.8297 9.18458 14.1778 9.18458 14.1778C9.18458 14.1778 8.92052 17.1488 10.9214 19.7328C12.9222 22.3168 14.5075 20.4498 14.5075 20.4498C14.5075 20.4498 15.9428 19.6823 16.415 16.5945C16.8872 13.5067 16.499 10.223 16.499 10.223Z" fill="#FFF4C7"/>
<path d="M28.2944 3.83305C27.4491 2.61624 26.1518 0.367057 22.9196 1.80018C19.6875 3.23331 19.7745 7.7361 19.7745 7.7361C19.7745 7.7361 18.5474 11.481 20.5812 14.7744C22.6149 18.0678 24.8489 17.0502 26.0656 16.205C27.2824 15.3598 27.687 14.7153 28.6451 11.1495C29.6033 7.5837 29.1398 5.04985 28.2944 3.83305Z" fill="#FFF4C7"/>
<path d="M40.2366 8.16489C40.2366 8.16489 38.4127 4.08095 35.5115 5.13281C32.6102 6.18466 32.9835 10.7949 32.9835 10.7949C32.9835 10.7949 31.0375 13.8569 32.2518 17.3188C33.4661 20.7808 36.3819 19.3182 36.3819 19.3182C36.3819 19.3182 38.5218 19.9565 39.8395 16.5572C41.1573 13.1578 40.2366 8.16489 40.2366 8.16489Z" fill="#FFF4C7"/>
<path d="M50.5932 19.6712C50.5932 19.6712 50.195 15.9627 47.156 16.5785C44.1169 17.1942 42.9955 21.211 42.9955 21.211C42.9955 21.211 40.4324 23.7611 41.0748 27.4247C41.7172 31.0883 44.9813 30.293 44.9813 30.293C44.9813 30.293 47.2607 29.8309 49.1124 26.6153C50.9641 23.3997 50.5932 19.6712 50.5932 19.6712Z" fill="#FFF4C7"/>
</svg>
