<svg width="50" height="46" viewBox="0 0 50 46" fill="none" xmlns="http://www.w3.org/2000/svg">
<path d="M41.4765 42.2264C47.1216 35.9447 36.3531 27.0314 30.1021 20.4754C25.912 17.332 20.0149 18.5159 16.1277 20.6694C6.3863 26.066 0.298298 34.3959 5.335 40.8437C10.3717 47.2915 20.9258 42.0707 22.9733 42.5135C25.0207 42.9562 35.8314 48.5082 41.4765 42.2264Z" fill="#FFAB6F"/>
<path d="M6.32471 17.1527C6.32471 17.1527 4.68938 14.3893 2.17532 15.7989C-0.338732 17.2085 0.0396414 20.6771 0.0396414 20.6771C0.0396414 20.6771 -0.309562 23.6368 1.52933 26.2906C3.36822 28.9443 4.95114 27.1353 4.95114 27.1353C4.95114 27.1353 6.83663 26.0779 7.3895 23.009C7.94238 19.9402 6.32471 17.1527 6.32471 17.1527Z" fill="#FFAB6F"/>
<path d="M16.0389 8.85997C16.0389 8.85997 15.098 3.29773 11.1405 6.72925C7.18297 10.1608 8.59185 12.5591 8.59185 12.5591C8.59185 12.5591 8.22505 15.5192 10.1352 18.1709C12.0453 20.8226 13.6944 19.0117 13.6944 19.0117C13.6944 19.0117 15.1554 18.2944 15.7342 15.2248C16.3131 12.1552 16.0389 8.85997 16.0389 8.85997Z" fill="#FFAB6F"/>
<path d="M28.0483 2.88241C27.2456 1.63705 26.027 -0.655713 22.7472 0.664614C19.4673 1.98494 19.3983 6.48805 19.3983 6.48805C19.3983 6.48805 18.0423 10.1882 19.9607 13.5501C21.8792 16.9119 24.1471 15.9723 25.3924 15.1697C26.6377 14.3672 27.0644 13.7371 28.1454 10.2066C29.2265 6.67614 28.8511 4.12776 28.0483 2.88241Z" fill="#FFAB6F"/>
<path d="M39.8335 7.62525C39.8335 7.62525 38.1522 3.48059 35.2162 4.43133C32.2803 5.38208 32.4936 10.0025 32.4936 10.0025C32.4936 10.0025 30.4428 12.9952 31.5365 16.4971C32.6301 19.9991 35.5948 18.6384 35.5948 18.6384C35.5948 18.6384 37.7114 19.3504 39.146 15.9987C40.5807 12.6471 39.8335 7.62525 39.8335 7.62525Z" fill="#FFAB6F"/>
<path d="M49.7852 19.4833C49.7852 19.4833 49.5157 15.7633 46.4571 16.2734C43.3985 16.7835 42.1386 20.7591 42.1386 20.7591C42.1386 20.7591 39.4888 23.2189 40.0039 26.9025C40.519 30.5862 43.8088 29.9044 43.8088 29.9044C43.8088 29.9044 46.1027 29.5215 48.0647 26.372C50.0267 23.2225 49.7852 19.4833 49.7852 19.4833Z" fill="#FFAB6F"/>
</svg>
